# xmcd
#
# Track frame offsets: 
#        150
#        13892
#        31930
#        54648
#        70196
#        83367
#        96312
#        112211
#        124702
#        147822
#
# Disc length: 2638 seconds
#
# Revision: 3
# Processed by: cddbd v1.5PL3 Copyright (c) Steve Scherf et al.
# Submitted via: ExactAudioCopy v0.95a3
#
DISCID=840a4c0a
DTITLE=CANNED HEAT - Boogie With Canned Heat
DYEAR=1968
DGENRE=Blues
TTITLE0=Evil Woman
TTITLE1=My Crime
TTITLE2=On The Road Again
TTITLE3=World In A Jug
TTITLE4=Turpentine Moan
TTITLE5=Whisky Headed Woman No. 2
TTITLE6=Amphetamine Annie
TTITLE7=An Owl Song
TTITLE8=Marie Laveau
TTITLE9=Fried Hockey Boogie
EXTD=Digitally Remastered 2000 Verbatim
EXTT0=
EXTT1=
EXTT2=
EXTT3=
EXTT4=
EXTT5=
EXTT6=
EXTT7=
EXTT8=
EXTT9=
PLAYORDER=
